<svg xmlns="http://www.w3.org/2000/svg" viewBox="0 0 64 64">
  <circle cx="32" cy="32" r="27" fill="#f4f4f4"/>
  <path fill="#1d1d1d" d="M32 12 43 20 39 33H25L21 20z"/>
  <path fill="#1d1d1d" d="M12 31 22 25 26 37 18 47z"/>
  <path fill="#1d1d1d" d="M52 31 42 25 38 37 46 47z"/>
  <path fill="#1d1d1d" d="M25 51 32 42 39 51 32 57z"/>
  <path fill="none" stroke="#1d1d1d" stroke-width="4" stroke-linecap="round" stroke-linejoin="round" d="M32 12 21 20 12 31M43 20 52 31M25 33 18 47M39 33 46 47M25 51 32 42 39 51"/>
</svg>
